<?xml version="1.0" encoding="utf-8"?>
<!-- Generator: Adobe Illustrator 23.0.3, SVG Export Plug-In . SVG Version: 6.00 Build 0)  -->
<svg version="1.1" id="Layer_5" xmlns="http://www.w3.org/2000/svg" xmlns:xlink="http://www.w3.org/1999/xlink" x="0px" y="0px"
	 viewBox="0 0 512 512" style="enable-background:new 0 0 512 512;" xml:space="preserve">
<style type="text/css">
	.st0{fill:#FFFFFF;}
</style>
<g>
	<path class="st0" d="M442,188l19.5-9.8l-16.7-16.7l55.5-34.7l-8.5-13.6l-72.5,45.3l15.3,15.3l-8.2,4.1c-7.7-4.3-15.8-8.1-24.4-11.1
		l-12.6-4.4L423,112h-27.4l20-53.2l-15-5.6L372.5,128H393l-19.3,29l-32.2-11.2c-12.8-4.5-21.5-16.6-21.5-30.2v-7.4
		c32.9-21.5,59.6-52,76.5-88.8L401.7,8H110.3l5.2,11.3c17,36.8,43.6,67.3,76.5,88.8v7.4c0,13.6-8.6,25.8-21.5,30.2l-60.4,21
		C49,188,8,245.7,8,310.4V416c0,48.5,39.5,88,88,88h16h19.1H504V310.4C504,261.2,480.2,216.1,442,188L442,188z M135.7,24h240.6
		c-25.4,47-68.6,81.5-120.3,95.7C204.3,105.5,161.1,71,135.7,24L135.7,24z M488,488h-80V345.9c0-19.8,7.7-38.3,21.7-52.3l-11.3-11.3
		c-17,17-26.3,39.6-26.3,63.6V488H148.4l95.3-88.5l30.5-5.1c11.6-1.9,22.1-7.3,30.4-15.6l64.2-64.2c4.7-4.7,7.3-11,7.3-17.6
		c0-10.2-6.2-18.9-14.9-22.8c4.4-4.7,6.9-10.7,6.9-17.2c0-10.2-6.2-18.9-14.9-22.8c4.4-4.7,6.9-10.7,6.9-17.2c0-13.8-11.2-25-25-25
		c-6.7,0-12.9,2.6-17.7,7.3l-7.6,7.6c-3.9-8.7-12.6-14.9-22.8-14.9c-6.7,0-12.9,2.6-17.7,7.3l-30.6,30.6
		c-2.9-13.9-11-26.4-23.1-34.5c-3.4-2.2-7.3-3.4-11.3-3.4c-11.2,0-20.4,9.1-20.4,20.4v8.2c0,10.4-4,20.1-11.4,27.5l-12.2,12.2
		c-10.6,10.6-16.4,24.6-16.4,39.6v24.8l-24,24v-2.7c0-24-9.4-46.6-26.3-63.6l-11.3,11.3c14,14,21.6,32.5,21.6,52.3v18.7l-53.7,53.7
		l11.3,11.3l98.3-98.3v-31.4c0-10.7,4.2-20.7,11.7-28.3l12.2-12.2c10.4-10.4,16.1-24.1,16.1-38.8v-8.2c0-3.3,4-5.4,6.8-3.6
		C217.6,216,224,228,224,241v3.7l-29.7,29.7l-0.4,0.4l11.3,11.3l0.4-0.4l34.3-34.3l40.7-40.7c1.7-1.7,3.9-2.6,6.3-2.6c4.9,0,9,4,9,9
		c0,2.4-0.9,4.6-2.6,6.3l-59,59l11.3,11.3l59-59l24-24c1.7-1.7,3.9-2.6,6.3-2.6c4.9,0,9,4,9,9c0,2.4-0.9,4.6-2.6,6.3l-16,16l-67,67
		l11.3,11.3l67-67c1.7-1.7,3.9-2.6,6.3-2.6c4.9,0,9,4,9,9c0,2.4-0.9,4.6-2.6,6.3l-16,16l-51,51l11.3,11.3l51-51
		c1.7-1.7,3.9-2.6,6.3-2.6c4.9,0,9,4,9,9c0,2.4-0.9,4.6-2.6,6.3l-64.2,64.2c-5.9,5.9-13.4,9.8-21.7,11.2l-35.2,5.9L124.9,488H112H96
		c-39.7,0-72-32.3-72-72V310.4c0-57.8,36.7-109.5,91.3-128.5l60.4-21c18.6-6.5,31.2-23.8,32.1-43.3c14.5,7.7,29.9,13.9,46.1,18.2
		l2,0.5l2-0.5c16.2-4.3,31.7-10.4,46.1-18.2c0.8,19.6,13.4,36.8,32.1,43.3l28.3,9.8l-11.2,16.8l13.3,8.9l13.5-20.3l16.5,5.7
		c4.1,1.4,8,3.1,11.9,4.8l-44.2,22.1l7.2,14.3l54.1-27.1c38.2,24.7,62.3,67.4,62.3,114.3L488,488z"/>
	<path class="st0" d="M240,64h-16c0,13.5,14.1,24,32,24s32-10.5,32-24h-16c0,3.3-6.2,8-16,8S240,67.3,240,64z"/>
</g>
</svg>
